<svg width="32" height="23" viewBox="0 0 32 23" fill="none" xmlns="http://www.w3.org/2000/svg">
<path d="M31.3321 3.50357C31.15 2.82514 30.7928 2.20644 30.2964 1.70941C29.8 1.21238 29.1818 0.854447 28.5036 0.671429C26.0071 1.36239e-07 16 0 16 0C16 0 5.99286 -1.36239e-07 3.49643 0.667857C2.81793 0.850282 2.19937 1.20802 1.70288 1.70514C1.20638 2.20226 0.849426 2.82127 0.667857 3.5C-1.36239e-07 6 0 11.2143 0 11.2143C0 11.2143 -1.36239e-07 16.4286 0.667857 18.925C1.03571 20.3036 2.12143 21.3893 3.49643 21.7571C5.99286 22.4286 16 22.4286 16 22.4286C16 22.4286 26.0071 22.4286 28.5036 21.7571C29.8821 21.3893 30.9643 20.3036 31.3321 18.925C32 16.4286 32 11.2143 32 11.2143C32 11.2143 32 6 31.3321 3.50357ZM12.8214 16V6.42857L21.1071 11.1786L12.8214 16Z" fill="white"/>
</svg>
